<?xml version="1.0" encoding="utf-8"?>
<!-- Generator: Adobe Illustrator 23.0.3, SVG Export Plug-In . SVG Version: 6.00 Build 0)  -->
<svg version="1.1" id="Layer_1" xmlns="http://www.w3.org/2000/svg" xmlns:xlink="http://www.w3.org/1999/xlink" x="0px" y="0px"
	 viewBox="0 0 100 100" style="enable-background:new 0 0 100 100;" xml:space="preserve">
<style type="text/css">
	.st0{fill-rule:evenodd;clip-rule:evenodd;fill:#181616;}
</style>
<path class="st0" d="M49.72,0.97C22.81,0.97,1,22.78,1,49.69c0,21.52,13.96,39.78,33.32,46.23c2.44,0.45,3.33-1.06,3.33-2.35
	c0-1.16-0.04-4.22-0.07-8.29c-13.55,2.94-16.41-6.53-16.41-6.53c-2.22-5.63-5.41-7.13-5.41-7.13c-4.42-3.02,0.33-2.96,0.33-2.96
	c4.89,0.34,7.46,5.02,7.46,5.02c4.35,7.45,11.4,5.3,14.18,4.05c0.44-3.15,1.7-5.3,3.09-6.51c-10.82-1.23-22.19-5.41-22.19-24.08
	c0-5.32,1.9-9.67,5.01-13.07c-0.5-1.23-2.17-6.19,0.48-12.89c0,0,4.09-1.31,13.4,4.99c3.89-1.08,8.05-1.62,12.2-1.64
	c4.14,0.02,8.31,0.56,12.2,1.64c9.3-6.3,13.38-4.99,13.38-4.99c2.66,6.71,0.99,11.66,0.48,12.89c3.12,3.41,5.01,7.75,5.01,13.07
	c0,18.72-11.39,22.83-22.24,24.04c1.75,1.5,3.31,4.48,3.31,9.02c0,6.51-0.06,11.77-0.06,13.37c0,1.3,0.88,2.82,3.35,2.34
	c19.34-6.46,33.29-24.7,33.29-46.22C98.44,22.78,76.62,0.97,49.72,0.97z"/>
</svg>
