<?xml version="1.0" encoding="utf-8"?>
<!-- Generator: Adobe Illustrator 23.0.3, SVG Export Plug-In . SVG Version: 6.00 Build 0)  -->
<svg version="1.1" id="Layer_1" xmlns="http://www.w3.org/2000/svg" xmlns:xlink="http://www.w3.org/1999/xlink" x="0px" y="0px"
	 viewBox="0 0 100 100" style="enable-background:new 0 0 100 100;" xml:space="preserve">
<style type="text/css">
	.st0{fill:#4875B4;}
</style>
<path class="st0" d="M50,1C22.94,1,1,22.94,1,50s21.94,49,49,49s49-21.94,49-49S77.06,1,50,1z M41.83,66.33h-8.17v-24.5h8.17V66.33z
	 M37.75,38.2c-2.48,0-4.49-2.03-4.49-4.53c0-2.5,2.01-4.53,4.49-4.53s4.49,2.03,4.49,4.53C42.24,36.17,40.23,38.2,37.75,38.2z
	 M70.42,66.33h-8.16V54.65c0-7.68-8.17-7.03-8.17,0v11.68h-8.17v-24.5h8.17v4.46c3.56-6.6,16.33-7.09,16.33,6.32V66.33z"/>
</svg>
