<?xml version="1.0" encoding="utf-8"?>
<!-- Generator: Adobe Illustrator 23.0.4, SVG Export Plug-In . SVG Version: 6.00 Build 0)  -->
<svg version="1.1" id="Layer_1" xmlns="http://www.w3.org/2000/svg" xmlns:xlink="http://www.w3.org/1999/xlink" x="0px" y="0px"
	 viewBox="0 0 100 100" style="enable-background:new 0 0 100 100;" xml:space="preserve">
<style type="text/css">
	.st0{fill:#B8BEB1;}
	.st1{fill:#564321;}
</style>
<circle class="st0" cx="50" cy="50" r="49"/>
<g>
	<g>
		<path class="st1" d="M61.19,42.37H38.51c-8.85,0-15.88,7.03-15.88,15.88L23,91l4,2l0.16-34.75c0-6.35,4.99-11.34,11.34-11.34h2.95
			l6.35,16.78c0.23,0.68,1.13,1.36,2.04,1.36s1.81-0.68,2.49-1.36l6.35-16.78h2.49c6.35,0,11.34,4.99,11.34,11.34L73,93l4-2
			l0.06-32.75C77.06,49.4,70.03,42.37,61.19,42.37z M50.07,56.43l-3.63-9.53h7.26L50.07,56.43z"/>
		<rect x="47.58" y="69.59" class="st1" width="4.54" height="4.54"/>
		<rect x="47.58" y="78.66" class="st1" width="4.54" height="4.54"/>
		<path class="st1" d="M47.58,40.1h4.54c6.35,0,11.34-4.99,11.34-11.34v-6.8c0-6.35-4.99-11.34-11.34-11.34h-4.54
			c-6.35,0-11.34,4.99-11.34,11.34v6.8C36.24,35.11,41.23,40.1,47.58,40.1z M40.77,21.96c0-3.86,2.95-6.8,6.8-6.8h4.54
			c3.86,0,6.8,2.95,6.8,6.8v6.8c0,3.86-2.95,6.8-6.8,6.8h-4.54c-3.86,0-6.8-2.95-6.8-6.8V21.96z"/>
		<rect x="33.97" y="65.05" class="st1" width="4.54" height="24.95"/>
		<rect x="61.19" y="65.05" class="st1" width="4.54" height="24.95"/>
	</g>
</g>
</svg>
