<?xml version="1.0" encoding="utf-8"?>
<!-- Generator: Adobe Illustrator 23.0.3, SVG Export Plug-In . SVG Version: 6.00 Build 0)  -->
<svg version="1.1" id="Layer_1" xmlns="http://www.w3.org/2000/svg" xmlns:xlink="http://www.w3.org/1999/xlink" x="0px" y="0px"
	 viewBox="0 0 1006 518" style="enable-background:new 0 0 1006 518;" xml:space="preserve">
<style type="text/css">
	.st0{opacity:0.1;}
	.st1{fill:#59431B;}
</style>
<g class="st0">
	<path class="st1" d="M331.42,189.88L217.24,387.63l1.72,0.99l75.62-130.98h33l9.45,9.45l8.75-8.75h22.88l75.21,130.28l1.72-0.99
		l-49.84-86.33l68.1-117.95h52.2l14.56,14.56l13.46-13.46h36.36l117.88,204.17l1.72-0.99L521.82,78.97L394.6,299.32L331.42,189.88z
		 M579.29,182.47h-36.04l-12.64,12.64l-13.74-13.74h-51.88l56.83-98.43L579.29,182.47z M344.96,256.36l-7.93,7.93l-8.63-8.63h-32.67
		l35.69-61.82l36.1,62.52H344.96z"/>
	<path class="st1" d="M529.37,428.1v-41.33c19.75-0.53,35.67-16.73,35.67-36.61c0-20.21-16.45-36.66-36.66-36.66
		c-20.21,0-36.66,16.44-36.66,36.66c0,19.88,15.91,36.08,35.67,36.61v41.33H529.37z M493.7,350.16c0-19.12,15.56-34.68,34.68-34.68
		c19.12,0,34.68,15.56,34.68,34.68c0,18.79-15.03,34.1-33.69,34.63v-34.63h-1.98v34.63C508.72,384.26,493.7,368.95,493.7,350.16z"/>
	<path class="st1" d="M892.69,246.02c31.2,0,56.59-25.39,56.59-56.59c0-31.2-25.38-56.59-56.59-56.59
		c-31.2,0-56.59,25.39-56.59,56.59C836.11,220.64,861.49,246.02,892.69,246.02z M892.69,134.54c30.27,0,54.89,24.62,54.89,54.89
		c0,30.27-24.62,54.89-54.89,54.89c-30.27,0-54.89-24.62-54.89-54.89C837.8,159.17,862.43,134.54,892.69,134.54z"/>
	<path class="st1" d="M834.06,139.82c0.25,0,0.48-0.11,0.64-0.29c3.84-4.46,8.21-8.49,12.98-11.97c0.38-0.28,0.46-0.81,0.19-1.19
		c-0.16-0.22-0.41-0.35-0.69-0.35c-0.18,0-0.35,0.05-0.5,0.16c-4.88,3.56-9.34,7.67-13.28,12.24c-0.31,0.35-0.26,0.89,0.09,1.2
		C833.66,139.75,833.86,139.82,834.06,139.82z"/>
	<path class="st1" d="M819.62,163.96c0.1,0.03,0.2,0.05,0.29,0.05c0.36,0,0.68-0.22,0.8-0.56c1.69-4.69,3.86-9.22,6.43-13.49
		c0.24-0.4,0.11-0.92-0.29-1.17c-0.13-0.08-0.28-0.12-0.43-0.12c-0.3,0-0.57,0.16-0.73,0.41c-2.64,4.38-4.85,9.02-6.57,13.79
		C818.96,163.32,819.19,163.81,819.62,163.96z"/>
	<path class="st1" d="M829.35,235.31c0.16,0.22,0.42,0.35,0.69,0.35c0.18,0,0.35-0.06,0.5-0.16c0.38-0.28,0.46-0.81,0.19-1.19
		c-5.23-7.21-9.13-15.19-11.58-23.72c-1.96-6.84-2.96-13.96-2.96-21.16c0-0.47-0.38-0.85-0.85-0.85c-0.47,0-0.85,0.38-0.85,0.85
		c0,7.35,1.02,14.62,3.03,21.62C820.03,219.78,824.01,227.94,829.35,235.31z"/>
	<path class="st1" d="M867.78,261.79c-0.09-0.03-0.19-0.05-0.28-0.05c-0.36,0-0.68,0.23-0.8,0.57c-0.07,0.22-0.06,0.45,0.04,0.65
		c0.1,0.21,0.27,0.36,0.49,0.43c8.16,2.81,16.73,4.24,25.46,4.24c0.47,0,0.85-0.38,0.85-0.85c0-0.47-0.38-0.85-0.85-0.85
		C884.16,265.94,875.78,264.54,867.78,261.79z"/>
	<path class="st1" d="M944.78,245.77c-0.21,0-0.42,0.08-0.57,0.22c-3.56,3.25-7.45,6.17-11.57,8.7c-0.19,0.12-0.33,0.3-0.38,0.52
		c-0.05,0.22-0.02,0.45,0.1,0.64c0.16,0.25,0.43,0.4,0.73,0.4c0.16,0,0.31-0.04,0.44-0.13c4.18-2.56,8.16-5.55,11.83-8.89
		c0.17-0.15,0.27-0.36,0.28-0.59c0.01-0.23-0.07-0.44-0.22-0.61C945.24,245.87,945.02,245.77,944.78,245.77z"/>
	<path class="st1" d="M955.03,235.24c0.15,0.1,0.32,0.16,0.49,0.16c0.27,0,0.53-0.13,0.69-0.35c4.54-6.3,8.09-13.21,10.57-20.54
		c0.15-0.44-0.09-0.93-0.52-1.07c-0.09-0.03-0.18-0.04-0.27-0.04c-0.37,0-0.69,0.23-0.81,0.57c-2.43,7.17-5.9,13.93-10.34,20.09
		C954.57,234.44,954.65,234.97,955.03,235.24z"/>
	<path class="st1" d="M969.49,198.68l0.1,0.01c0.43,0,0.79-0.33,0.84-0.76c0.3-2.8,0.46-5.66,0.46-8.5c0-0.47-0.38-0.85-0.85-0.85
		c-0.47,0-0.85,0.38-0.85,0.85c0,2.77-0.15,5.57-0.45,8.31c-0.02,0.23,0.04,0.45,0.18,0.62
		C969.07,198.55,969.28,198.66,969.49,198.68z"/>
	<path class="st1" d="M952.77,142.06c2.57,3.26,4.9,6.75,6.91,10.39c0.15,0.27,0.44,0.44,0.75,0.44c0.14,0,0.29-0.04,0.41-0.1
		c0.41-0.23,0.56-0.75,0.33-1.16c-2.06-3.71-4.43-7.28-7.06-10.61c-4.78-6.05-10.4-11.35-16.71-15.75c-0.14-0.1-0.31-0.15-0.49-0.15
		c-0.28,0-0.54,0.14-0.7,0.36c-0.13,0.19-0.18,0.41-0.14,0.64c0.04,0.22,0.16,0.42,0.35,0.54
		C942.59,130.96,948.1,136.15,952.77,142.06z"/>
	<path class="st1" d="M892.69,112.93c4.61,0,9.21,0.41,13.67,1.22c0.05,0.01,0.11,0.01,0.16,0.01c0.41,0,0.76-0.29,0.83-0.7
		c0.08-0.46-0.23-0.9-0.68-0.98c-4.59-0.83-9.29-1.25-13.98-1.25c-0.47,0-0.85,0.38-0.85,0.85
		C891.84,112.55,892.22,112.93,892.69,112.93z"/>
	<path class="st1" d="M608.6,428.1v-28.06c13.58-0.53,24.47-11.71,24.47-25.41c0-14.04-11.42-25.46-25.46-25.46
		c-14.04,0-25.46,11.42-25.46,25.46c0,13.7,10.89,24.88,24.47,25.41v28.06H608.6z M584.13,374.63c0-12.95,10.53-23.48,23.48-23.48
		c12.95,0,23.48,10.53,23.48,23.48c0,12.61-10,22.9-22.49,23.43v-23.43h-1.98v23.43C594.13,397.54,584.13,387.24,584.13,374.63z"/>
	<path class="st1" d="M133.74,182.29c-3.97-2.11-8.41-3.23-12.92-3.23c-15.18,0-27.52,12.35-27.52,27.52c0,0.77,0.04,1.55,0.11,2.36
		c-6.53,0.45-11.71,5.92-11.71,12.57c0,1.26,0.19,2.52,0.56,3.68c0.94,3.75,4.29,6.38,8.16,6.38h127.09c3.66,0,6.85-2.31,8-5.77
		c1.88-2.74,2.86-5.92,2.86-9.2c0-9.02-7.34-16.35-16.35-16.35c-1.55,0-3.09,0.23-4.6,0.67c-0.63-1.76-1.45-3.47-2.47-5.11
		c0.88-2.66,1.33-5.43,1.33-8.24c0-8.76-4.36-16.89-11.66-21.75c-4.29-2.86-9.29-4.37-14.46-4.37c-9.25,0-17.79,4.9-22.49,12.83
		c-2.02-0.59-4.11-0.9-6.2-0.9C144.47,173.39,137.91,176.7,133.74,182.29z M151.47,175.37c2.15,0,4.29,0.35,6.35,1.04l0.78,0.26
		l0.4-0.72c4.25-7.72,12.36-12.51,21.16-12.51c4.77,0,9.39,1.4,13.36,4.04c6.75,4.49,10.78,12.01,10.78,20.1
		c0,2.74-0.46,5.45-1.38,8.03l-0.16,0.46l0.26,0.41c1.22,1.9,2.17,3.92,2.82,5.99l0.31,0.99l0.97-0.35c1.6-0.58,3.24-0.87,4.89-0.87
		c7.92,0,14.37,6.45,14.37,14.37c0,2.93-0.9,5.76-2.59,8.19l-0.13,0.27c-0.84,2.71-3.32,4.53-6.15,4.53H90.41
		c-2.96,0-5.52-2-6.26-4.93c-0.32-1.03-0.48-2.09-0.48-3.15c0-5.85,4.75-10.6,10.78-10.6c0.01,0,0.01,0,0.02,0l1.15,0.03l-0.14-1.14
		c-0.14-1.12-0.21-2.17-0.21-3.21c0-14.08,11.46-25.54,25.54-25.54c4.46,0,8.86,1.17,12.72,3.4l0.8,0.46l0.52-0.76
		C138.61,178.65,144.82,175.37,151.47,175.37z"/>
	<path class="st1" d="M287.33,125.39h146.05c4.15,0,7.77-2.63,9.06-6.55c2.15-3.12,3.28-6.75,3.28-10.51
		c0-10.28-8.36-18.64-18.64-18.64c-1.81,0-3.61,0.27-5.38,0.81c-4.31-12.36-15.85-20.59-29.02-20.59c-0.48,0-0.96,0.02-1.43,0.04
		c0.14-1.19,0.22-2.38,0.22-3.56c0-8.51-3.67-16.65-10.08-22.33c-5.48-4.86-12.51-7.54-19.79-7.54c-16.47,0-29.87,13.4-29.87,29.87
		c0,0.14,0,0.29,0,0.43c-3.07-0.97-6.24-1.46-9.45-1.46c-17.36,0-31.48,14.12-31.48,31.48c0,0.92,0.04,1.88,0.13,2.85
		c-7.5,0.44-13.47,6.69-13.47,14.3c0,1.43,0.22,2.86,0.63,4.2C279.16,122.42,282.96,125.39,287.33,125.39z M291.79,101.63l0.01-0.95
		l0.01,0l0.2,0.96l1.15,0.03l-0.14-1.14c-0.16-1.27-0.24-2.52-0.24-3.7c0-16.26,13.23-29.5,29.5-29.5c3.46,0,6.88,0.61,10.16,1.82
		l1.43,0.52l-0.1-1.52c-0.04-0.59-0.06-1.18-0.06-1.77c0-15.38,12.51-27.89,27.89-27.89c6.8,0,13.36,2.5,18.48,7.04
		c5.98,5.3,9.41,12.9,9.41,20.85c0,1.48-0.12,2.98-0.36,4.47l-0.2,1.25l1.26-0.11c0.82-0.07,1.66-0.12,2.5-0.12
		c12.65,0,23.68,8.1,27.45,20.16l0.31,0.99l0.97-0.35c1.86-0.67,3.76-1.01,5.67-1.01c9.18,0,16.66,7.47,16.66,16.66
		c0,3.4-1.04,6.68-3.01,9.5l-0.14,0.27c-0.98,3.17-3.88,5.3-7.21,5.3H287.33c-3.46,0-6.47-2.35-7.33-5.76
		c-0.37-1.2-0.56-2.43-0.56-3.66C279.44,107.17,284.98,101.63,291.79,101.63z"/>
	<path class="st1" d="M641.24,158.09h117.86c3.62,0,6.76-2.45,7.63-5.92c0.35-1.14,0.53-2.31,0.53-3.48
		c0-6.18-4.79-11.26-10.86-11.72c0.06-0.73,0.09-1.43,0.09-2.12c0-15.24-13.49-27.45-29.03-25.36c0.02-0.4,0.03-0.8,0.03-1.21
		c0-10.03-5.16-19.11-13.8-24.29c-4.41-2.64-9.43-4.04-14.52-4.04c-15.62,0-28.33,12.71-28.33,28.32c0,1.6,0.14,3.22,0.41,4.81
		c-9.4,1.07-17.53,7.5-20.71,16.41c-1.39-0.4-2.8-0.61-4.22-0.61c-8.4,0-15.23,6.83-15.23,15.23c0,3.06,0.92,6.01,2.66,8.56
		C634.83,155.93,637.81,158.09,641.24,158.09z M646.32,130.88c1.52,0,3.04,0.27,4.51,0.8l0.97,0.35l0.31-0.99
		c2.81-8.98,11-15.43,20.39-16.07l1.14-0.08l-0.24-1.12c-0.38-1.82-0.58-3.67-0.58-5.5c0-14.53,11.82-26.34,26.34-26.34
		c4.73,0,9.4,1.3,13.5,3.75c8.04,4.82,12.84,13.26,12.84,22.59c0,0.78-0.04,1.54-0.11,2.3l-0.11,1.29l1.28-0.24
		c1.45-0.27,2.9-0.4,4.32-0.4c13.02,0,23.61,10.59,23.61,23.61c0,0.95-0.06,1.92-0.19,2.96l0.06,1.1h1.12
		c5.39,0,9.77,4.38,9.77,9.77c0,0.97-0.15,1.95-0.46,2.95c-0.66,2.63-3.01,4.47-5.72,4.47H641.24c-2.6,0-4.87-1.67-5.64-4.15
		l-0.13-0.27c-1.57-2.24-2.39-4.85-2.39-7.55C633.07,136.82,639.02,130.88,646.32,130.88z"/>
	<polygon class="st1" points="767.81,318.23 793.2,292.83 793.2,312.66 757.66,348.2 759.06,349.6 793.2,315.46 793.2,335.28 
		746.08,382.4 747.48,383.81 793.2,338.08 793.2,357.9 730.76,420.35 732.16,421.75 793.2,360.71 793.2,380.53 751.99,421.74 
		753.39,423.14 793.2,383.33 793.2,439.89 795.18,439.89 795.18,383.33 835,423.14 836.4,421.74 795.18,380.53 795.18,360.71 
		856.23,421.75 857.63,420.35 795.18,357.9 795.18,338.08 840.91,383.81 842.31,382.4 795.18,335.28 795.18,315.46 829.33,349.6 
		830.73,348.2 795.18,312.66 795.18,292.83 820.57,318.23 821.98,316.82 794.19,289.04 766.41,316.82 	"/>
	<polygon class="st1" points="315.7,394.33 317.1,392.93 285.43,361.26 285.43,352.54 307.89,375 309.29,373.6 285.43,349.74 
		285.43,341.02 301.99,357.58 303.39,356.18 285.43,338.22 285.43,329.49 297.53,341.59 298.93,340.19 284.44,325.7 269.94,340.19 
		271.34,341.59 283.45,329.49 283.45,338.22 265.48,356.18 266.88,357.58 283.45,341.02 283.45,349.74 259.58,373.6 260.98,375 
		283.45,352.54 283.45,361.26 251.78,392.93 253.18,394.33 283.45,364.07 283.45,372.79 262.59,393.64 263.99,395.04 283.45,375.59 
		283.45,403.23 285.43,403.23 285.43,375.59 304.88,395.04 306.28,393.64 285.43,372.79 285.43,364.07 	"/>
	<polygon class="st1" points="422.08,415.08 423.48,413.68 378.19,368.39 378.19,354.76 410.94,387.51 412.35,386.11 378.19,351.96 
		378.19,338.33 402.53,362.66 403.93,361.26 378.19,335.52 378.19,321.88 396.17,339.87 397.57,338.47 377.2,318.09 356.82,338.47 
		358.22,339.87 376.21,321.88 376.21,335.52 350.46,361.26 351.86,362.66 376.21,338.33 376.21,351.96 342.05,386.11 343.45,387.51 
		376.21,354.76 376.21,368.39 330.92,413.68 332.32,415.08 376.21,371.19 376.21,384.83 346.35,414.69 347.75,416.09 376.21,387.63 
		376.21,428.07 378.19,428.07 378.19,387.63 406.65,416.09 408.05,414.69 378.19,384.83 378.19,371.19 	"/>
	<path class="st1" d="M49.35,125.39h93.9c0.55,0,0.99-0.44,0.99-0.99c0-0.55-0.44-0.99-0.99-0.99h-93.9c-0.55,0-0.99,0.44-0.99,0.99
		C48.36,124.95,48.8,125.39,49.35,125.39z"/>
	<path class="st1" d="M161.49,516.32h-54.52c-0.55,0-0.99,0.44-0.99,0.99c0,0.55,0.44,0.99,0.99,0.99h54.52
		c0.55,0,0.99-0.44,0.99-0.99C162.48,516.76,162.03,516.32,161.49,516.32z"/>
	<path class="st1" d="M35.73,149.66h27.24c0.55,0,0.99-0.44,0.99-0.99c0-0.55-0.44-0.99-0.99-0.99H35.73
		c-0.55,0-0.99,0.44-0.99,0.99C34.74,149.22,35.19,149.66,35.73,149.66z"/>
	<path class="st1" d="M235.85,71.79h21.46c0.55,0,0.99-0.44,0.99-0.99c0-0.55-0.44-0.99-0.99-0.99h-21.46
		c-0.55,0-0.99,0.44-0.99,0.99C234.86,71.34,235.3,71.79,235.85,71.79z"/>
	<path class="st1" d="M656.96,233.55c-0.55,0-0.99,0.44-0.99,0.99c0,0.55,0.45,0.99,0.99,0.99h21.46c0.55,0,0.99-0.44,0.99-0.99
		c0-0.55-0.44-0.99-0.99-0.99H656.96z"/>
	<path class="st1" d="M453.88,55.06c0.19,0.19,0.45,0.29,0.7,0.29c0.25,0,0.51-0.1,0.7-0.29l10.6-10.6l10.6,10.6
		c0.19,0.19,0.45,0.29,0.7,0.29c0.26,0,0.51-0.1,0.7-0.29c0.39-0.39,0.39-1.01,0-1.4l-10.6-10.6l10.6-10.6
		c0.39-0.39,0.39-1.01,0-1.4c-0.39-0.39-1.01-0.39-1.4,0l-10.6,10.6l-10.6-10.6c-0.39-0.39-1.01-0.39-1.4,0
		c-0.39,0.39-0.39,1.01,0,1.4l10.6,10.6l-10.6,10.6C453.49,54.04,453.49,54.67,453.88,55.06z"/>
	<path class="st1" d="M246.58,24.85c5.58,0,10.12-4.54,10.12-10.12c0-5.58-4.54-10.12-10.12-10.12c-5.58,0-10.13,4.54-10.13,10.12
		C236.46,20.31,241,24.85,246.58,24.85z M246.58,6.58c4.49,0,8.14,3.65,8.14,8.14c0,4.49-3.65,8.14-8.14,8.14
		c-4.49,0-8.14-3.65-8.14-8.14C238.44,10.23,242.09,6.58,246.58,6.58z"/>
	<path class="st1" d="M698.18,267.63c0,5.58,4.54,10.12,10.12,10.12c5.58,0,10.12-4.54,10.12-10.12s-4.54-10.12-10.12-10.12
		C702.72,257.51,698.18,262.05,698.18,267.63z M716.45,267.63c0,4.49-3.65,8.14-8.14,8.14c-4.49,0-8.14-3.65-8.14-8.14
		c0-4.49,3.65-8.14,8.14-8.14C712.79,259.49,716.45,263.15,716.45,267.63z"/>
	<path class="st1" d="M656.7,439.98c1,0,2.05,0.08,3.31,0.26l0.71,0.1l0.32-0.65c5.6-11.43,16.97-18.54,29.69-18.54
		c18.22,0,33.04,14.82,33.04,33.04c0,18.22-14.82,33.04-33.04,33.04H656.7c-13.03,0-23.63-10.6-23.63-23.63
		c0-3.12,0.6-6.16,1.8-9.03C638.54,445.71,647.11,439.98,656.7,439.98z"/>
	<path class="st1" d="M480.27,454.97c4.56,3.69,7.85,8.84,9.26,14.49l0.21,0.85l0,0l0,0l0.87-0.11c0.81-0.1,1.47-0.15,2.1-0.15
		c7.97,0,14.65,5.68,16.2,13.21c0.22,1.07,0.34,2.19,0.34,3.33c0,1.14-0.12,2.25-0.34,3.33c-1.54,7.53-8.22,13.21-16.2,13.21h-29.43
		c-14.94,0-27.09-12.15-27.09-27.09c0-8.21,3.67-15.88,10.07-21.06c4.87-3.94,10.76-6.02,17.01-6.02
		C469.53,448.94,475.4,451.02,480.27,454.97z"/>
	<path class="st1" d="M175.8,434.12l22.37,6.56l-4.95,12.53l-0.78,1.98l-5.09,12.88c-0.2,0.51,0.05,1.08,0.56,1.29
		c0.12,0.05,0.24,0.07,0.36,0.07c0.39,0,0.77-0.24,0.92-0.63l5.38-13.61l0.78-1.98l4.31-10.9l6.31,10.9l1.15,1.98l18.55,32.05
		H119.24l16.99-22.44h18.8h0.53h12.38c0.55,0,0.99-0.44,0.99-0.99c0-0.55-0.44-0.99-0.99-0.99h-11.07l5.03-7.63l1.31-1.98
		L175.8,434.12z"/>
	<path class="st1" d="M156.48,414.29c0.43,0,0.79-0.35,0.79-0.79v-38.52l0.38-0.02c12.31-0.55,22.46-9.43,22.86-9.79
		c9.19-9.5,13.72-20.3,13.49-32.12c-0.51-25.08-21.93-45.78-22.86-46.66c-6.03-6.52-12.42-7.02-14.23-7.02c-0.17,0-0.3,0-0.43,0.01
		c-0.08-0.01-0.23-0.01-0.45-0.01c-1.81,0-8.17,0.5-14.16,6.99c-0.91,0.87-22.38,21.56-22.89,46.69
		c-0.24,11.82,4.32,22.65,13.53,32.17c0.43,0.38,10.68,9.2,22.81,9.74l0.38,0.02v38.52C155.69,413.94,156.05,414.29,156.48,414.29z
		 M155.28,373.39c-11.47-0.58-21.56-9.2-21.69-9.31c-8.88-9.18-13.27-19.61-13.04-30.98c0.48-24.06,21.55-44.78,22.44-45.64
		c5.59-6.05,11.42-6.52,13.08-6.52h0.84c1.65,0,7.49,0.47,13.11,6.55c0.22,0.21,21.91,21.11,22.41,45.59
		c0.23,11.38-4.13,21.78-13,30.95c-0.1,0.09-10.11,8.77-21.74,9.35l-0.42,0.02v-28.42c0-0.44-0.35-0.79-0.79-0.79
		c-0.43,0-0.79,0.35-0.79,0.79v28.42L155.28,373.39z"/>
	<path class="st1" d="M88.06,428.43c0.37,0,0.66-0.3,0.66-0.66v-29.52l0.2,0c10.13-0.13,16.85-2.5,20-7.04
		c3.31-4.78,1.37-10.13,1.28-10.35l-12.74-31.17c-2.57-8.08-9.34-8.22-9.41-8.23c-0.07,0-6.83,0.16-9.38,8.18L65.9,380.88
		c-0.08,0.22-2,5.57,1.29,10.33c3.14,4.54,9.87,6.91,20,7.04l0.2,0v29.52C87.39,428.13,87.69,428.43,88.06,428.43z M87.19,396.92
		c-9.64-0.12-16-2.3-18.9-6.45c-2.86-4.11-1.23-8.89-1.16-9.1l12.78-31.27c2.26-7.11,7.89-7.3,8.13-7.3c0.06,0,5.85,0.08,8.16,7.35
		l12.76,31.21c0.07,0.2,1.71,5-1.15,9.12c-2.89,4.15-9.25,6.32-18.89,6.45l-0.2,0v-18.1c0-0.36-0.3-0.66-0.66-0.66
		c-0.37,0-0.66,0.3-0.66,0.66v18.1L87.19,396.92z"/>
</g>
</svg>
